<svg xmlns="http://www.w3.org/2000/svg" viewBox="0 0 1300 400"><path fill="#2C394A" d="M81.4 285.3c-.4 2.5-.1 5.1 0 7.6 0 .2-.1.3-.1.5-.1 1.3-.2 2.6-1 3.5-.4-.6-.8-1.1-1-1.8-.3-.9-.3-1.8-.7-2.7-.1-.3-.3-.6-.4-.8 0-.3 0-.7-.1-1-.5-2.1-1.1-6.3-2-9.4 0-.7 0-1-.3-2.2-1.1-4.1-.4-7.7-.2-11.8.2-4.3.2-8.6.2-12.9.2-.3.3-.7.2-1.1-.2-11.3-1.7-23.9 0-35.2 0 .2.1-1.4 1.2 0 .9 1.1 1.4 5.9 1.4 7.3 0 0-.1 2.5.2 3.4 0 .1-.4 1.8-.1 2.6.2.4.6 2.2.7 2.5.4 2.4.1 4.7.1 7.2 0 2.3.2 7.8.2 8.4.2 2.3.6 4.5 1.1 6.8v.7c.8 5.5.2 11.8 1.5 17.3 0 .7.1 1.4.1 2.1-.3.4-.4.8-.3 1.4.3 2.8-.3 5-.7 7.6zm70.7-154.1s-1.1-2.8-1.7-4.5c-.4-1.2-.4-2-1.1-4.2 0-.1-.5-1.3-.5-1.3-.1-.1-1.5-3.8-2-4.7l-1.4-4c0-.2-.6-1.5-.7-1.5-.3-.5-.6-1.5-.7-1.5-.7-.9-1.1-1.7-1.5-2.6-.1-.3-.8-1.4-1.4-2.7-2.8-6.4-4.9-11.7-8.5-17.9-2-3.4-5.9-12.4-4.6-9 .2.6-1.4-2.7-2.5-4.3-3.7-7.1-5-7.6-9.5-10-3.9-2.1-9-2.9-13.2-4.5-2.8-1.1-5-3-5.3-3.1-9.5-5.1-7.3-13.6-4.5-23.3 1.6-4.9 1.4-8.4 1.3-13.6.1-.2-.1-2.3-.1-2.7-.3-5-3.5-7.7-6.7-11.2C84.3 1 80.2-.9 75.5.5c-.4-.2-.9-.2-1.5.1-.9.6-2.1.2-3 .4-1.1.2-2 .8-3 1.3-1.9 1-4 2-5.7 3.4-1.1.9-1.9 1.9-2.5 3-1.6 2.2-2.1 5.1-2.6 7.9-.8 4.1-1.1 10-.5 11.3.8 1.7 1.5 6.4 1.8 9.6.2 1.9.3 3.3.3 3.3s-1 8.2-3.8 12.3c0 0 0 .1-.1.1a8.4 8.4 0 01-2.2 3.1c-.6.5-1.1.9-1.6 1.4-.4.2-.7.4-1.1.7C38.5 67.6 24 76.8 21.4 91c-.3 2.1-2.3 5.9-2.5 6.3-4.1 10.9-3.2 16.8-6.8 27.9-.1.4-.2.7-.2 1-3.5 9-5.4 18.7-6.2 27.2v.5c.1 13.7-1.9 25.1-3.4 27-1.2 1.5-1.5 4.6-1.9 5.7-.9 5.5-.1 7.7 2.4 12.3 2.3 4.1 5.5 6.3 9.5 8.8 3.5 1.9 7.1 1.5 7.1 1.5s-1.3-1.9-1.6-3c-.4-1.6-1.3-4-1.8-5.6-.8-2.5-1.1-4.8.1-7.5 2.3-5.3 4.7-8.1 6-11.4 2.3-5.6 4.6-9.3 7.4-20.8.5 3.3 2.4 8.7 2.8 10.7.3 1.8.3 3.2.8 5.4.5 2.1-.1 6-.1 6s2.2 1.7 4.4 2.9c-.3 5 .9 9.8 1.3 14.8.5 6 0 12.1.4 18.1.6 10.9 3 21.5 5.7 32.1.2.6.4 1.2.7 1.7 0 3.9.8 8.1.9 11.8.1 5.8 1.2 11.5 2.4 17.2 0 .2.1.4.2.7 0 6.9-.1 14.1.7 21 .4 3.4 2 11 3.1 14.9 0 .5 1.2 2.8 1.6 5.4 0 0 1 7.8 1.6 11.6 0 1 0 2 .1 2.9.2 4.3.6 8.5 1.3 12.8 1.2 7.2 2.5 15.2-1.7 17.7-2 1.2-1.3 4.4-.3 5.7 0 .1.9.3.9.4.6.5.4.3.9.9-.1-.2.7.8.9 1 .1.1.3.2.5.4.2-.1 1.1.1 1.6.1 4.5.2 8.6.9 12.1 4 3.8 3.4 4.3 5.7 4.6 10.2 2 .5 3.8 3.9 6.5 4.8 2.2-.3 2 .1 3.4-.5 4.9-2.1 9.1-8.3 12.3-12.2-1.2-6.9 1.4-18.8 1.2-20.7-.6-.8-2.9-3.4-3.3-5.8-.3-1.5-.8-2.5-.9-3.6-.2-1.2 1.6-2.3.6-3.6.8-4.1 1.1-8.3 2.2-12.4 1.4-5.2 3.3-10.3 4.5-15.5 2.3-9.2 3.7-18.6 4.4-28.1.2-.3.3-.6.3-1 .9-10.4 2.7-20.4 3.8-30.7-.8-6.7.2-13.4 1.4-20.1 2-10.3 4.8-23.9 4.9-35.2.9-.7 2.2-.2 2.2-.2s1.4-5.9 2-7.8c.7-2.3.9-4.6 1.5-7 .6-2.2 1-4 1.9-6 2.7-1 5-2.7 7.1-4 .8-.5 1-1.4.6-2.2-1.6-3-2.1-5.5-.2-8.6.9-1.5 3-2.5 4.5-3.5 1.6-1.1 3.1-2.2 4.4-3.5 2.6-1.6 5-3.6 7.3-5.7 1.1-1 5.3-4 5.6-4.5 3.5-6.9-.2-16.1-3-22.5zm104.7 139.1v1.7l-2.7 2.7-1.9-1-1.8-2.5-3.4 2.5-.6 1.5 1.3 5.2-4.2 1.3-3.9 1.7-5.8-1.2-1-1.7-1.1-8-2.1-8.4-2.9-3.8-11-.6-4-1.3-23.8 2.7-2.1 2.1-4.3.8-1.1 1.3 1.4 5.4.6 1.7-1 3.6-7 8.6-3.7-.2-6.4-9.2.3-21.6 5.3-12.1 1.1-1.7 4 1.7 5.3-2.9 6.1-10 1.8-8.4-1.1-10.9 1.1-5.9.8-6.9v-14.9l1.3-4.2-1-3.3 2.9-8-1.4-11.7.8-3.8-.8-2.5-.8-.8-11.5-1.3-1.3-2.7 1.3-5.6 1.9-1.5 4.2-.8 1.9-1 4.8 1 2.2-1 14.7 1h4.2l1.3-1 17.9.4 7.7 2.5 1.3 2.5v3.1l-4.5 3.9-1.9.8-2.4 4.8-.2 22.2-1 1.2-1 10-1.9 7.5L231 218l.8 4-1.1 9.4 1.1 7.5 5.3 5.4 5.1 1.3 3.5 5.6.6 5.2 1.3 1.5v6.1l3.4 6.3 1.1.4 4.3-3.1.4 2.7zm-37.6-59.8l1-14-1.3-4.4 1-3.8v-33.5l-2.2-4h-2.8l-3.1-2.7-3.5-.8-2.2.8-4.1 8.4v25.1l-1.8 5v11.1l-1.4 6.5 1.9 5.4v5.2l-.5 14.9-2.1 5v6.7l5.3 2.5 2.7-3.8 1.6-.4 3.8 3.1 2.6 1 1.8-2.3 2.1-7.5-.3-13.6.6-1.7.9-8.2zm130.2 43.1v2.9l-4.5 5.4-5.4 1.7-16-1.3H319l-2.9-2.1-2.4-5-9.5 7.1-4.5-1.3-3.5-2.4-.3-3.8h-1.3l-2.4 2.9-6.4.6-2.1 1.3-8 1-3.4-1-9.1 1-2.6-1.1-1.1-2.7 1.2-5.3 7.7-8.4 2-3.2L269 226l1.4-5.9v-10.5L272 198l-1.1-7.3v-7.1l1.1-2.5-.6-8.4-1-2.9 1.6-3.3v-5l-4.3-4.2-3.2-6.5-2.9-3.6.6-5.4 4.6-4.6 7.2.8h7.7l7.7.8 4.2 8.4 1.9 1.7.6 1.3-1.3 11.3-.3 10-.1 3.8 3.5 21.5 4.2 2.8V218l.5.9 1.2-.9 1.4-3.7.2-7.7 3.2-4.2v-6.5l-2.2-3.6 1.9-4.4 4.3-6.9 1-7.9.3-22.3 2.1-5.6 7-7.1 9.1-.8 7.2 1.7 2.4-.8h1.4l4.3 9.2-.8 4.4-1 1.3h-4.3l-1.8 1.9-1.3 7.1-1.9 5.6.6 17.8V211l1.3 17.6-1.3 8 1.8 7.5 5.8 2.5 4.9 7zm-57-11.1l1.3-14-1.3-2.5v-9.6l-1.9-4.6-4.3-38.9-2.1-6.3h-1l-3.2 6.7 1.6 3.6v9l.6 7.5-1.3 3.6-.3 6.9 1 21.8-1 2.5 1.3 15.9 3.4 1.3 6.4-.8.8-2.1zm33.5-41.2l3-18.8-1.6-7.1-.5-6.5-2.1-.4-.3 1.9 1.1 5.4-4 8.4 1 8-2.1 2.9-2.4 7.1 1 5.4-1 4.8-.6 15.3-2.2 6.5v6.1l1 2.3h1.2l2.2-1.5 1.9-4.2v-7.1l1.6-6.9 2.4-5.2.4-16.4zm114.4-56.1l1 5-1 1.9-1.8 1h-3.7l-1.9.6-1.1 2.3.8 8.8-.8 5 2.4 4.6-3.4 8-.8 8.4-1 6.9 1.4 6.5-.8 5 .8 16.3.6 4.2.6 14.6 1.4 2.1 3.7.8 2.7 5 1 4.6-.3 1.5-3.8 2.7-14.3.8-3-1.3-5 1.5-3.8-3.6-2.1-3.6.3-5.2 3.4-4 4 .8 2.4-4 1.9-12.8-3.5-16.5 3.5-8 1.3-6.7-.6-25.3-.6-.4h-1l-3.4 5.4-1.1 4.2-2 2.9-.3 4-4.8 7.5-2.2 8-1.6 4.8-.5 4-2.4 2.3-1.3 2.1-.6 5-2.1 4.6-1.3 10.5-1.1 2.9.3 4.6 1.8 2.5-1 1.3v1.9l4.6 1.5-.3 5-1.9 1.3-7.5.9-4.3.7-5.3-1.5-15.5-.4-2.7-3.5v-2.1l6.1-6.3 1.1-3.3 2.6-4.2 1.8-7.1.3-9.8 1.1-4-.5-6.5.5-7.1 1.6-3.1-1-18.3-1-6.3-.2-8.1-1-2.7 1-7.7-2.8-11-1.3-1.6-4.1 1.7-1.6-2.7v-3.1l1.6-2.1 3.2 1.3 3.2-2.1 5.8-.8 2.6-.8 3.5.8 10.4.8 2.1 2.9v2.7l-6.4 7.5-3.5 1-1.6 1.3-.6 1.3V167l-1.4 2.9 1.1 4.2-1.8 8.8v8l-1.4 7.7 2.1 5.2-2.7 6.7.6 15.1 2.9 2.9 1.3-.4 1.9-3.8 1.3-5.4 1.9-6.5 3.2-5.7.3-2.5v-1.7l5.5-5.7 1.6-10.2 1.9-8.4 2.6-3.8-1-9.6-.3-.4 4.6-5.9v-14.9l-1.3-1.5V141l1-1.3 5-.4 5.8-1.3h9l8.2.8 2.8 6.4zm90.3 2.9l.3 4.8-1.9 4.4-2.2 13-1.1 2.9h-3.4l-5.4-7.1-1.9 3.1-2-5.2-1.6-2.7v-4.8l-1.9-3.8-1-1.3-5.5 2.1-1.6 6.5-1.5 6.9v10.5l-.8 2.5.8 11.3-.8 5.6 1 10.7.9 2.9-1.2 8.4-.8 3.2v14.9l1.6 2.7 2.1 5.2 1.3 1.5h3.7l7.9 2.1 3.4 4.5-1.4 4.3-2.9 4.8-9-1.3-7.4 1.7-2.2 1.7H494l-3.4-3.3-3.2 1.7-7.4.8-4.8-2.3-2.1-5.2.3-5.1 5.4-4.3h7.2V241l1.9-5.4V228l-1.9-5.2-.3-11v-10.4l1.8-5.8-.8-9.6v-14.1l-.6-2.3.6-3.5v-6.4l-2.1-3.5h-2.2l-3.2-6.3h-4.5L472 154l-4.9 16-2.9 3.3-2.9-.4-3.5-8 1.4-17.6 2.7-7.5 3.4-2.5h50.1l10.9.8 1.8 2.9v5l-.5.4 1.3 1.7h1.7zm99.3 8l2.6 13.8-1.3 13-3.2 6.5-1 5.6v5.4l.6.8-.6 2.9-6.1 3.8-7.4-1.3-3.7 3.3-3.7-2.5-3.8 1.3-2.6 2.1-7-2.1-2.1 1.7-1.1 1.9-1.3 4.8-.5 8.4 1.8 4.2v10.5l1.1 2.7 5.4 3.1 3.7 1.3 2.1-1.7 4.7.4 2.4 4 1.8 8h-2.6l-6.4 5.2-11.9-.8-2.6.8-4.8-.8H575l-1.4.8-3.2-1.3-7.2-.4-1.6-1.7-4-.6-3.2-4.4.3-5.2.8-1.5 1-1.3 7.2-.4 5.6-1.7 3.4-2.7 1.3-2.7v-14.2l-1-16.3v-4.4l2.7-6.3-1.3-18.3 1.3-28.4-1.8-2.3-3.2.8-1.4 1.5-3.4-.8-1-.6h-7l-2.4-2.5-1.1-2.5 1-4.6 4.5-4.4 4.2-1.9 9 1h7l12.8 1.3 2.1-2.3 3.4 1.3 11.7.6 5.8 4.4 10.7 1.9v8.4l3.3 5.4zm-9.3 19.7l.3-5.9-3.5-12.1-5.1-2.1-3.4-5.4h-2.1l-3 .6-4.3-.6-6.4-.2-3.4-1.3-2.4 1.5-.7 2.1.8 13.8-1.4 8.9.7 3 2 3.4v8.3l1.8 2.8h1.4l.3-.4 4 .4h8l6.3-1.7 2.3-2.9 5.5-4.2 2.3-8zM730 145.2l1 5-1 1.9-1.8 1h-3.7l-1.9.6-1.1 2.3.8 8.8-.8 5 2.4 4.6-3.4 8-.8 8.4-1 6.9 1.4 6.5-.8 5 .8 16.3.6 4.2.6 14.6 1.4 2.1 3.7.8 2.7 5 1 4.6-.3 1.5-3.8 2.7-14.3.8-3-1.3-5.1 1.3-3.8-3.6-2.1-3.6.3-5.2 3.4-4 4 .8 2.4-4 1.9-12.8-3.5-16.5 3.5-8 1.3-6.7-.6-25.3-.6-.4h-1l-3.4 5.4-1.1 4.2-2 2.9-.3 4-4.8 7.5-2.2 8-1.6 4.8-.5 4-2.4 2.3-1.3 2.1-.6 5-2.1 4.6-1.3 10.5-1.1 2.9.3 4.6 1.8 2.5-1 1.3v1.9l4.6 1.5-.3 5-1.9 1.3-7.5.9-4.3.7-5.3-1.5-15.5-.4-2.7-3.5v-2.1l6.1-6.3 1.1-3.3 2.6-4.2 1.8-7.1.3-9.8 1.1-4-.5-6.5.5-7.1 1.6-3.1-1-18.3-1-6.3-.2-8.1-1-2.7 1-7.7-2.8-11-1.3-1.7-4.1 1.7-1.6-2.7v-3.1l1.6-2.1 3.2 1.3 3.2-2.1 5.8-.8 2.6-.8 3.5.8 10.4.8 2.1 2.9v2.7l-6.4 7.5-3.5 1-1.6 1.3-.6 1.3V167l-1.4 2.9 1.1 4.2-1.8 8.8v8l-1.4 7.7 2.1 5.2-2.7 6.7.6 15.1 2.9 2.9 1.3-.4 1.9-3.8 1.3-5.4 1.9-6.5 3.2-5.7.3-2.5v-1.7l5.5-5.7 1.6-10.2 1.9-8.4 2.6-3.8-1-9.6-.3-.4 4.6-5.9v-14.9l-1.3-1.5V141l1-1.3 5-.4 5.8-1.3h9l8.2.8 2.9 6.4zm96-.8l1.9 4.2-.6 5.2-2.2 4-4.5-5-.6-.4-1.6 2.1-.6 23.3 1.9 3.8-1 4.8-2.1 6.5 1 14.4-1.9 7.7v5.4l1 4.4v7.5l1.8 6.9 7.7 10.6v6l-2.2 4.8-1.8 1.9-5.4.4-2.1.8-6.4-.8-6.7.8-3.2-.8-6.1-7.1-1.6-.8-1-1.3V252l3.2-2.7 6.4-2.7 4.2-7.5v-6.5l1.6-2.7-.5-6.3-1.8-5.4.8-5.2-.8-5.6 2.6-7.1 1.6-11.1-1-4.4 2.6-5.9.6-2.5-.3-1.7h-3.5l-3.2 2.7-1 8.6-4.8 8 .6 2.7-4 3.3-1.3 5.4-1.9 3.3-1.4 6.9-2.1 5.6-.6 8.4-4.6 4.4-2.1 12.3-1 1.5.3 2.1 2.7 1.9.3 2.5v1.3l-6.7 6.3-6.1-1.3-11.1 1.3H752l-1.6-1.7-1.6-2.7.3-6.5 2.8-3.4 5.3-1.3 1.2-4.4v-14.1l3.2-5-3.2-6.1 1.6-9.2-1.6-8.2 1.3-17.6v-9.9l1-5.7-1-3.6-1.3-1.5-.3-9.7-4.6-.6-3.5-5.3.5-4 1.6-1.9h18.5l3.2 1.5h2.4l.8 1.2-.7 6.1-1.6 5-4.1 5.9.8 8.8-.8 4.2.2 7.7.6 1.9-1.8 4.4v6.5l1.8 2.7v3.6l-2.9 8 .2 2.9 1 1.3v2.5l-3.7 4.6.3 2.5 2.4 3.1 3-.4 7.4-9.4 1-7.1 2.1-4.2-.6-6.5 4.1-4.8 1-5.9 3.6-5.2.7-12.4 5.2-11.2.6-3.3-1-3.5-.8-1.5 3.4-7.1 5.3-2.1-2.1-4.2-6.1.4-4.8 2.8-3.5 1.3-4.2-2.1-3.2-3.5-9.3-1.9h-3.2l-3.2-5-2.2-4.2-.3-6.7-2.2-3.3 1.3-4 4.2-3.8 8.7-.6 2.1 3.6v5.2l-1.8 2.9v1.5l3.8 5.2 7-.8 2.2-.8h6.1l6.1-5.4v-8l6.7-6.7 5.3 3.3 4.3 3.3 2.2 8-.5 8.4v4.6l-1.6 2.5 1 2.7 3 1.9h4l2.5 8.5zm186 107.7v4.8l-3.5 2.3-4.8 1h-4.2l-1.1-1-2.4.4-3.2 2.3-4.8-.8-3.4-.8-9.1-1-3-9.8.3-3.9 1.8-1.3 5.3 1.5 1.4-.4 1.9-2.7-2.2-6.5-2.7-5.6-2.7-8.8-2.7-4-.3-4-.8-1.3h-1l-5.1 12.3-2.2 1.3-3.4 6.7-.6 3.4-2.8 3.8 1 1.9 6.4 5.6 1.3 7.5-1 2.1-4.3 3.3-9.6-1-2.1-1.3-9.5-.2-5.9 2.5-2.9-1-1.6-4.4v-6.3l3.4-3.3 5 1.3h3.8l3.4-2.1 3-5.4 1.3-7.1 3.2-3.3 1.8-2.9 1.4-8.4 2.9-2.3 1.3-1.7 1.1-5.2 3-4.6.3-4.8 1.9-2.5-1-6.3-4.6-7.3-5.3-12.6-.8-5.4-6.9-15.5-2.1-2.5h-7.8l-2.6-1.9H932l-.3-.8 5.8-4.4 11.4-1.3 2.6-1.5 9.9 1h3.8l.3-1 3.5 6.8v2.9l-2 2.4-4.3-1.7-5.1 2.5v1.5l5.4 5.7 1 1.3-.6 3.4v1.7l3 3 2.7 7.7.3.4 4-4.2 1.1-1.9v-2.3l3.2-4.2.5-5.4 1.6-2.1v-2.3l-1.6-1.5-4.3.2-2.1-13.2 2.1-2.3 5.9 2.3 2.7-2.3h7l1.3-1.5 3.4 1 2.1 2.7 4-1h4.3l2.1-.4h1.3l1.8 2.7v7.1l-1.3 2.9-1.9 1.3h-7l-2.2.6-5.1 8.4-4.5 11.9-2.4 4.2-2.1 7.1-5 7.3-.5 6.3 5.4 16.3 8.5 16.5 3.6 12.8 1.9 2.5h5.5l3.9 1.5h1.9l3.5 6.6zm92.9-1.9l1.9 6.9-1 1.9-4.5 2.9-3.2 3.3-3.8-.8-8-2.5-6.1 1.3h-5.6l-7.5-7.5-1.9-.8v-1.7l2.4-2.5 7.5-1.5 1.8-2.7v-15.9l-1.8-2.5-11.9 1.3-3.5-3.3-3.4.4-6.2 13.2 1 3.6 9.8 9.6.3 1.7-2.7 1.7-2.7 4.2h-5.8l-2.1 1.7h-5.9l-2.4 1.3-5.1-1.3h-2.6l-5-2.9-1.4-5.1v-3.4l5.8-3.8 4.2-1.3 5.1-10.5 1.3-13.9 2.2-5.9v-5.1l2.2-7.2 1-6.9 5.1-18.6 2.4-15.9 2.1-5 .6-9.2 8.7-11.7 2.6 1.3 1.9 3.3 4.2 3.8 3.2 13 3.5 7.5-1.6 8 .3 8.2 3.4 5.9 1.1 13.6.6 5.9 1.3 6.9 2.7 6.5 1.6 10 1.8 5.4 2.7 3.3 5.9 6.3 1.4.4 2.1 5.1zm-34.3-37.8l2.2-4V204l-3.5-6.9v-3.8l.3-7.3-1-8-2.2-5.6h-1.3l-1.9 5.4-1.4 2.9-1.8 6.9v6.7l-1.5 6.9-1.7 11.1 1.6 1.5 4.8-1 5 1 2.4-1.4zm128.8-56.3l2.6 13.8-1.3 13-3.2 6.5-1 5.6v5.4l.6.8-.6 2.9-6.1 3.8-7.4-1.3-3.7 3.3-3.7-2.5-3.8 1.3-2.6 2.1-7-2.1-2.1 1.7-1.1 1.9-1.3 4.8-.5 8.4 1.8 4.2v10.5l1.1 2.7 5.4 3.1 3.7 1.3 2.1-1.7 4.7.4 2.4 4 1.8 8h-2.6l-6.4 5.2-11.9-.8-2.6.8-4.8-.8h-7.5l-1.4.8-3.2-1.3-7.2-.4-1.6-1.7-4-.6-3.2-4.4.3-5.2.8-1.5 1-1.3 7.2-.4 5.6-1.7 3.4-2.7 1.3-2.7v-14.2l-1-16.3v-4.4l2.7-6.3-1.3-18.3 1.3-28.4-1.8-2.3-3.2.8-1.4 1.5-3.4-.8-1-.6h-7l-2.4-2.5-1.1-2.5 1-4.6 4.5-4.4 4.2-1.9 9 1h7l12.8 1.3 2.1-2.3 3.4 1.3 11.7.6 5.8 4.4 10.7 1.9v8.4l3.4 5.4zm-9.3 19.7l.3-5.9-3.5-12.1-5.1-2.1-3.4-5.4h-2.1l-3 .6-4.3-.6-6.4-.2-3.4-1.3-2.4 1.5-.7 2.1.8 13.8-1.4 8.9.7 3 2 3.4v8.3l1.8 2.8h1.4l.3-.4 4 .4h8l6.3-1.7 2.3-2.9 5.5-4.2 2.3-8zm108 74.4l1.9 6.9-1 1.9-4.5 2.9-3.2 3.3-3.8-.8-8-2.5-6.1 1.3h-5.6l-7.5-7.5-1.9-.8v-1.7l2.4-2.5 7.5-1.5 1.8-2.7v-15.9l-1.8-2.5-11.9 1.3-3.5-3.3-3.4.4-6.2 13.2 1 3.6 9.8 9.6.3 1.7-2.7 1.7-2.7 4.2h-5.8l-2.1 1.7h-5.9l-2.4 1.3-5.1-1.3h-2.6l-5-2.9-1.4-5.1v-3.4l5.8-3.8 4.2-1.3 5.1-10.5 1.3-13.9 2.2-5.9v-5.1l2.2-7.2 1-6.9 5.1-18.6 2.4-15.9 2.1-5 .6-9.2 8.7-11.7 2.6 1.3 1.9 3.3 4.2 3.8 3.2 13 3.5 7.5-1.6 8 .3 8.2 3.4 5.9 1.1 13.6.6 5.9 1.3 6.9 2.7 6.5 1.6 10 1.8 5.4 2.7 3.3 5.9 6.3 1.4.4 2.1 5.1zm-34.3-37.8l2.2-4V204l-3.5-6.9v-3.8l.3-7.3-1-8-2.2-5.6h-1.3l-1.9 5.4-1.4 2.9-1.8 6.9v6.7l-1.5 6.9-1.7 11.1 1.6 1.5 4.8-1 5 1 2.4-1.4z"/><path fill="#E84D18" d="M328 333h13.3c5 0 9.1 1.6 12.5 4.9 3.4 3.2 5.1 7.2 5.1 11.8 0 4.6-1.8 8.6-5.3 12 3.4 1.7 6.1 4.1 8 7.3 2 3.2 3 6.6 3 10.4 0 5.6-2.1 10.4-6.2 14.3a21 21 0 01-15 5.9H328V333zm13.2 7.1H335v19h6.2c2.8 0 5.3-.9 7.4-2.8 2.1-1.9 3.1-4.1 3.1-6.7 0-2.7-1-4.9-3-6.8-2-1.8-4.5-2.7-7.5-2.7zm2.2 26.1H335v26.1h8.4c3.9 0 7.2-1.3 9.9-3.8 2.7-2.6 4.1-5.6 4.1-9.3 0-3.6-1.4-6.6-4.1-9.2-2.7-2.5-6-3.8-9.9-3.8zm97.7 26.7c7.2 0 13.3-2.5 18.4-7.4l5 5.1c-6.6 6.3-14.4 9.4-23.4 9.4-9.3 0-17.3-3.3-23.9-9.9-6.6-6.6-9.9-14.5-9.9-23.9 0-9.3 3.3-17.2 9.9-23.8 6.6-6.6 14.6-9.9 23.8-9.9 9 0 16.8 3.2 23.5 9.5l-5.1 5.2c-5.1-5-11.3-7.5-18.4-7.5-7.3 0-13.6 2.6-18.8 7.8-5.2 5.2-7.8 11.5-7.8 18.8 0 7.4 2.6 13.6 7.8 18.8 5.3 5.2 11.6 7.8 18.9 7.8zm70.1 6.6V333h28.5v7.1h-21.4v27.6h18.1v7.2h-18.1v17.5h21.4v7.2h-28.5zm162 0v-59.4h-21.9v59.4h-7.1V333h36.1v66.6h-7.1zm57.5 0V333h17.6c5.9 0 10.9 2.1 15.1 6.2 4.2 4.1 6.3 9 6.3 14.8 0 5.8-2.1 10.7-6.3 14.8-4.2 4.1-9.2 6.2-15.1 6.2h-10.4v24.7h-7.2zm17.6-31.8c3.9 0 7.3-1.3 10.1-4s4.2-5.9 4.2-9.8-1.4-7.1-4.2-9.7c-2.8-2.7-6.2-4-10.1-4h-10.4v27.6h10.4zm63.7-1.5c0-9.3 3.3-17.3 9.9-23.9 6.6-6.6 14.5-9.9 23.9-9.9 9.3 0 17.2 3.3 23.8 9.9 6.6 6.6 9.9 14.5 9.9 23.9 0 9.3-3.3 17.2-9.9 23.8-6.6 6.6-14.6 9.9-23.8 9.9-9.3 0-17.3-3.3-23.9-9.9-6.6-6.6-9.9-14.5-9.9-23.8zm15-18.8c-5.2 5.2-7.8 11.5-7.8 18.8 0 7.4 2.6 13.6 7.8 18.8 5.2 5.2 11.5 7.8 18.8 7.8 7.3 0 13.6-2.6 18.8-7.8 5.2-5.2 7.8-11.5 7.8-18.8 0-7.4-2.6-13.6-7.8-18.8-5.2-5.2-11.5-7.8-18.8-7.8-7.4 0-13.6 2.6-18.8 7.8zm130 45.5c7.2 0 13.3-2.5 18.4-7.4l5 5.1c-6.6 6.3-14.4 9.4-23.4 9.4-9.3 0-17.3-3.3-23.9-9.9-6.6-6.6-9.9-14.5-9.9-23.9 0-9.3 3.3-17.2 9.9-23.8 6.6-6.6 14.6-9.9 23.8-9.9 9 0 16.8 3.2 23.5 9.5l-5.1 5.2c-5.1-5-11.3-7.5-18.4-7.5-7.3 0-13.6 2.6-18.8 7.8-5.2 5.2-7.8 11.5-7.8 18.8 0 7.4 2.6 13.6 7.8 18.8 5.3 5.2 11.6 7.8 18.9 7.8zm64.3-52.8V333h35.7v7.1h-14.3v59.4h-7.2v-59.4h-14.2zm74.2 26.1c0-9.3 3.3-17.3 9.9-23.9 6.6-6.6 14.5-9.9 23.9-9.9 9.3 0 17.2 3.3 23.8 9.9 6.6 6.6 9.9 14.5 9.9 23.9 0 9.3-3.3 17.2-9.9 23.8-6.6 6.6-14.6 9.9-23.8 9.9-9.3 0-17.3-3.3-23.9-9.9-6.6-6.6-9.9-14.5-9.9-23.8zm15-18.8c-5.2 5.2-7.8 11.5-7.8 18.8 0 7.4 2.6 13.6 7.8 18.8 5.2 5.2 11.5 7.8 18.8 7.8 7.3 0 13.6-2.6 18.8-7.8 5.2-5.2 7.8-11.5 7.8-18.8 0-7.4-2.6-13.6-7.8-18.8-5.2-5.2-11.5-7.8-18.8-7.8-7.4 0-13.6 2.6-18.8 7.8z"/><path fill="#2C394A" d="M319.9 292.6h20.9v14.2h-20.9zm801.2 14h-43.4v-13.9h43.4v13.9zm-86.7 0H991v-13.9h43.4v13.9zm-86.7 0h-43.4v-13.9h43.4v13.9zm-86.7 0h-43.4v-13.9H861v13.9zm-86.7 0H731v-13.9h43.4v13.9zm-86.7 0h-43.4v-13.9h43.4v13.9zm-86.7 0h-43.4v-13.9h43.4v13.9zm-86.7 0h-43.4v-13.9h43.4v13.9zm-86.7 0h-43.4v-13.9h43.4v13.9zm737-14h20.9v14.2h-20.9z"/></svg>