<?xml version="1.0" standalone="no"?>
<!DOCTYPE svg PUBLIC "-//W3C//DTD SVG 20010904//EN"
 "http://www.w3.org/TR/2001/REC-SVG-20010904/DTD/svg10.dtd">
<svg version="1.0" xmlns="http://www.w3.org/2000/svg"
 width="90.000000pt" height="90.000000pt" viewBox="0 0 90.000000 90.000000"
 preserveAspectRatio="xMidYMid meet">
<metadata>
Created by potrace 1.11, written by Peter Selinger 2001-2013
</metadata>
<g transform="translate(0.000000,90.000000) scale(0.100000,-0.100000)"
fill="#000000" stroke="none">
<path d="M240 863 c-8 -2 -22 -7 -30 -10 -11 -3 -9 -8 10 -18 16 -8 34 -36 52
-81 l27 -68 -32 -75 c-25 -58 -38 -77 -55 -79 -15 -2 -22 -10 -22 -25 0 -20 5
-22 53 -21 55 1 72 18 47 49 -9 11 -8 22 5 49 10 20 19 36 22 36 5 0 33 -66
33 -80 0 -5 -7 -10 -15 -10 -16 0 -19 -9 -9 -34 4 -12 20 -16 54 -16 67 0 90
36 35 54 -13 4 -29 30 -48 79 l-28 72 25 60 c16 41 32 64 50 73 15 7 26 22 26
33 0 17 -7 19 -60 19 -51 0 -60 -3 -60 -18 0 -10 5 -23 11 -29 11 -11 2 -63
-11 -63 -7 0 -40 55 -40 67 0 1 7 3 15 3 24 0 18 27 -7 34 -26 6 -27 6 -48 -1z"/>
<path d="M600 856 c-6 -9 -27 -84 -45 -167 -22 -101 -39 -156 -49 -161 -22
-12 -20 -48 2 -49 35 -2 67 3 80 13 10 9 9 15 -4 29 -10 12 -14 27 -10 42 5
20 10 23 36 19 25 -4 30 -9 30 -32 0 -17 -7 -30 -16 -34 -30 -12 11 -44 56
-44 55 -1 70 20 41 59 -27 36 -47 102 -56 184 -13 119 -38 173 -65 141z m24
-168 c6 -55 5 -58 -15 -58 -20 0 -21 4 -16 50 6 46 15 76 22 68 1 -2 5 -29 9
-60z"/>
<path d="M184 445 c-9 -22 4 -35 34 -35 l27 0 -5 -142 c-5 -142 -5 -142 -30
-148 -16 -4 -25 -13 -25 -25 0 -22 29 -33 96 -34 48 -1 69 12 69 41 0 12 -8
18 -24 18 -14 0 -27 4 -30 9 -7 11 -11 89 -5 95 2 2 29 7 59 10 30 3 56 5 57
6 1 0 4 29 8 64 9 79 -5 126 -42 144 -39 18 -182 16 -189 -3z m179 -49 c21
-16 23 -79 2 -96 -16 -13 -61 -17 -72 -6 -4 3 -8 31 -11 61 l-4 55 33 0 c19 0
42 -7 52 -14z"/>
<path d="M584 442 c-6 -10 -15 -33 -18 -52 -47 -231 -62 -279 -88 -280 -5 0
-8 -7 -8 -15 0 -20 34 -32 72 -27 35 5 46 26 25 50 -10 11 -12 24 -7 38 7 16
15 20 39 16 25 -3 31 -9 31 -30 0 -13 -8 -30 -17 -37 -30 -22 0 -44 55 -42 41
2 47 5 50 25 2 14 -5 33 -17 46 -11 12 -25 46 -31 76 -7 30 -16 71 -21 91 -5
21 -7 44 -3 52 5 15 -33 107 -45 107 -3 0 -11 -8 -17 -18z m28 -167 c3 -46 1
-50 -20 -53 -19 -3 -22 0 -18 20 3 13 8 40 11 62 8 50 22 35 27 -29z"/>
</g>
</svg>
