<svg viewBox="0 0 128 128" xmlns="http://www.w3.org/2000/svg" fill="#e84d18"><path d="M121 10.3h-13.8V3a3 3 0 00-6 0v7.3H80.4V3a3 3 0 00-6 0v7.3H53.6V3a3 3 0 00-6 0v7.3H26.8V3a3 3 0 00-6 0v7.3H7a7 7 0 00-7 7V121a7 7 0 007 7h88a3 3 0 00.59-.06l.26-.08a1.76 1.76 0 00.59-.25l.23-.12a3 3 0 00.46-.38l30-30a3 3 0 00.38-.46c0-.07.07-.14.11-.21a1.78 1.78 0 00.25-.6c0-.09.06-.17.08-.27A3 3 0 00128 95V17.3a7 7 0 00-7-7zM98 98h19.76L98 117.76zM7 16.3h13.8v7.3a3 3 0 006 0v-7.3h20.8v7.3a3 3 0 106 0v-7.3h20.8v7.3a3 3 0 106 0v-7.3h20.8v7.3a3 3 0 106 0v-7.3H121a1 1 0 011 1v14.3H6V17.3a1 1 0 011-1zM6 121V37.6h116V92H95a3 3 0 00-3 3v27H7a1 1 0 01-1-1z"/></svg>