<svg xmlns="http://www.w3.org/2000/svg" viewBox="0 0 20 20"><path d="M20 4.6c0 .2-.2.4-.5.4h-1.4v12.3c0 1.4-1 2.7-2.3 2.7H4.1c-1.3 0-2.3-1.2-2.3-2.6V5H.5C.2 5 0 4.8 0 4.6v-.8c0-.3.2-.4.5-.4h4.4l1-2.2C6.1.5 7 0 7.7 0h4.5c.7 0 1.6.5 1.9 1.2l1 2.2h4.4c.3 0 .5.2.5.4v.8zm-3.6.4H3.6v12.3c0 .7.4 1 .5 1h11.8c.1 0 .5-.3.5-1V5zM7.3 15.4c0 .2-.2.4-.5.4h-.9c-.3 0-.5-.2-.5-.4V7.9c0-.3.2-.4.5-.4h.9c.3 0 .5.2.5.4v7.5zm5.9-12.1l-.7-1.5-.3-.2H7.6l-.1.2-.7 1.5h6.4zm-2.3 12.1c0 .2-.2.4-.5.4h-.9c-.3 0-.5-.2-.5-.4V7.9c0-.3.2-.4.5-.4h.9c.3 0 .5.2.5.4v7.5zm3.6 0c0 .2-.2.4-.5.4h-.9c-.3 0-.5-.2-.5-.4V7.9c0-.3.2-.4.5-.4h.9c.3 0 .5.2.5.4v7.5z"/></svg>