<svg xmlns="http://www.w3.org/2000/svg" viewBox="0 0 369.72 369.72" fill="#e84d18"><path d="M184.86 186.14c42.31 0 76.63-41.67 76.63-93.07C261.49 41.67 250.2 0 184.86 0c-65.36 0-76.63 41.67-76.63 93.07 0 51.4 34.32 93.07 76.63 93.07zM40.14 317.37c-.01-3.14-.03-.89 0 0zm289.43 2.45c.04-.86.02-5.96 0 0z"/><path d="M329.42 313.6c-1.43-89.54-13.11-115.05-102.61-131.2l-41.95 70.71-41.96-70.7C54.4 198.37 41.98 223.5 40.35 310.7c-.12 7.12-.18 7.5-.21 6.67l.01 9.4s21.31 42.95 144.72 42.95c123.4 0 144.7-42.95 144.7-42.95v-6.95c-.02.5-.06-.49-.15-6.21z"/></svg>