<svg xmlns="http://www.w3.org/2000/svg" viewBox="0 0 60 60" fill="#e84d18"><path d="M59.2.3a1 1 0 00-1.4 0L54.08 4H30.8L1.53 33.51a3.5 3.5 0 000 5L22 58.96a3.5 3.5 0 005-.01l28.5-29.27V5.4l3.7-3.7a1 1 0 000-1.42zM39 33.85a1 1 0 11-1.41-1.41 7 7 0 00.65-9.14l-8.95 8.95.76 6.08a6.3 6.3 0 01-1.35 4.73 5.88 5.88 0 01-4.87 2.22c-2.04 0-4.02-.7-5.6-1.97l-1.15 1.14a1 1 0 01-1.42 0 1 1 0 010-1.4l1.15-1.15a9.01 9.01 0 01.66-11.98 1 1 0 111.42 1.41 7 7 0 00-.65 9.14l8.94-8.95-.76-6.09a6.3 6.3 0 011.35-4.72 5.9 5.9 0 014.11-2.2 8.98 8.98 0 016.37 1.94l.75-.74a1 1 0 111.41 1.41l-.75.75A9 9 0 0139 33.86zM44.5 20a5 5 0 11.01-10.01A5 5 0 0144.5 20z"/><path d="M32.05 20.52a3.9 3.9 0 00-2.73 1.46 4.28 4.28 0 00-.91 3.22l.56 4.54 7.85-7.84a7 7 0 00-4.77-1.38zM27.5 34.05l-7.85 7.84a7.04 7.04 0 004.77 1.38 3.9 3.9 0 002.73-1.46c.72-.9 1.06-2.07.92-3.22l-.57-4.54z"/></svg>