<svg xmlns="http://www.w3.org/2000/svg" viewBox="0 0 20 20"><path d="M20 4.9l-.1-.3L15.4.1 15 0H1.8C.8 0 0 .8 0 1.8v16.5c0 1 .8 1.8 1.8 1.8h16.5c1 0 1.8-.8 1.8-1.8V4.9zm-6.5-3.7V5c0 .3-.3.6-.6.6h-.7V1.2h1.3zm-2.5 0v4.4H5.5c-.3 0-.5-.3-.5-.6V1.2h6zm2.5 11.3H5v-.7c0-.3.3-.6.6-.6h7.3c.3 0 .6.3.6.6v.7zM5 18.8v-5.1h8.5v5.1H5zm13.8-.6c0 .3-.3.6-.6.6h-3.6v-7c0-1-.8-1.8-1.8-1.8H5.5c-1 0-1.8.8-1.8 1.8v7h-2a.6.6 0 01-.6-.6V1.8c0-.3.3-.6.6-.6h2V5c0 1 .8 1.8 1.8 1.8h7.3c1 0 1.8-.8 1.8-1.8V1.2h.1l4.1 4.1v12.9z"/></svg>