<svg xmlns="http://www.w3.org/2000/svg" viewBox="0 0 20 20"><path d="M11.9.1H8.1C4.1.1.9 3.3.9 7.3v3.4c0 3 1.8 5.6 4.6 6.7v2.2c0 .2.2.4.4.4l.2-.1 2.2-2H12c4 0 7.2-3.2 7.2-7.2V7.3c-.1-4-3.3-7.2-7.3-7.2zm6.5 10.7c0 3.6-2.9 6.5-6.5 6.5H8.1l-.2.1-1.7 1.5v-1.6c0-.2-.1-.3-.3-.4a6.5 6.5 0 0 1-4.3-6.1V7.3C1.6 3.7 4.5.8 8.1.8h3.8c3.6 0 6.5 2.9 6.5 6.5v3.5z"/><path d="M15 11.7l-2.4-1.5c-.5-.3-1.2-.2-1.6.3v.2A3.7 3.7 0 0 1 8.2 8l.3-.3c.4-.4.5-1.1.1-1.5L6.7 4h-.5L5 5c-1 .9-.5 2.2-.4 2.6.1.1 1 1.8 2.6 3.4a18 18 0 0 0 4.5 3.1c.9.6 2.1.3 2.6-.6l.8-1.3c.2-.1.1-.4-.1-.5zM13.7 13c-.3.5-1 .7-1.6.4 0 0-2.8-1.5-4.3-3a15.6 15.6 0 0 1-2.4-3.1c-.3-.9-.3-1.4.1-1.8l.9-.8L8 6.6v.5l-.5.4c-.1.1-.2.3-.1.4.8 2.6 2.4 3.1 3.5 3.5l.2.1c.2 0 .3 0 .4-.2l.3-.4c.1-.2.3-.2.5-.1l2 1.3-.6.9zm-2.9-6.7c-.2-.1-.4.1-.5.3 0 .2.1.4.3.4.6.2 1 .6 1.1 1.1.1.2.3.3.5.3.2-.1.3-.3.3-.5-.2-.8-.8-1.4-1.7-1.6z"/><path d="M13.7 8.6h.1c.2-.1.3-.3.3-.5a4.8 4.8 0 0 0-3.3-3.3c-.2-.1-.4.1-.5.3-.1.2.1.4.3.5a4 4 0 0 1 2.8 2.7l.3.3z"/><path d="M10.6 3c-.2-.1-.4.1-.5.3-.1.2.1.4.3.5 2.2.6 4 2.4 4.6 4.6.1.2.3.3.5.3.2-.1.3-.3.3-.5A7.4 7.4 0 0 0 10.6 3z"/></svg>