<svg xmlns="http://www.w3.org/2000/svg" viewBox="0 0 20 20"><path d="M20 9.7a9.8 9.8 0 0 1-14.6 8.5L0 20l1.8-5.2A9.8 9.8 0 0 1 10.2 0C15.6 0 20 4.3 20 9.7zm-9.8-8.1a8.2 8.2 0 0 0-8.3 8.1c0 1.7.5 3.4 1.6 4.8l-1 3 3.2-1a8.2 8.2 0 0 0 12.8-6.9 8.2 8.2 0 0 0-8.3-8zM15.1 12l-.5-.3-1.6-.8c-.2-.1-.4-.1-.5.1l-.8.9c-.2.1-.3.2-.5.1s-1-.4-1.9-1.2c-.5-.5-1-1-1.3-1.6-.2-.2-.1-.4.1-.5l.4-.4.2-.4c.1-.2 0-.3 0-.4l-.8-1.8c-.2-.5-.4-.4-.5-.4h-.5l-.6.3c-.3.2-.9.8-.9 2s.9 2.3 1 2.5c.1.2 1.7 2.6 4.1 3.6s2.4.6 2.9.6c.4 0 1.4-.6 1.6-1.1.2-.6.2-1.1.1-1.2z"/></svg>

