<svg xmlns="http://www.w3.org/2000/svg" viewBox="0 0 400 60" fill="#fff"><path d="M390.4 10.7h-14.3c-3.2 0-4.8 1.6-4.8 4.9v9.9c0 3.3 1.6 4.9 4.8 4.9h14.3V10.7zm9.6 34.5c0 9.9-4.8 14.8-14.5 14.8h-14.2v-9.9h14.3c3.2 0 4.8-1.6 4.8-4.9v-4.9h-14.3c-9.6 0-14.3-4.9-14.3-14.8v-9.9c0-9.9 4.8-14.8 14.3-14.8H400v44.4zm-73-30.4c0-3.3 1.6-4.9 4.8-4.9h10.4c3.2 0 4.8 1.6 4.8 4.9h-20zm29.6 9.8v-9.9C356.6 4.9 351.7 0 342 0h-9.9c-9.7 0-14.6 4.9-14.6 14.8v10.8c0 9.9 4.8 14.8 14.3 14.8h23v-9.9h-23c-3.2 0-4.8-1.6-4.8-4.9v-.9h29.6v-.1zm-73-13.9H298c3.2 0 4.8 1.6 4.8 4.9v9.9c0 3.3-1.6 4.9-4.8 4.9h-14.3V10.7h-.1zm28.7 5c0-9.9-4.8-14.8-14.3-14.8h-23.9V60h9.6V40.3h14.2c9.7 0 14.5-4.9 14.5-14.8l-.1-9.8zm-73-.9c0-3.3 1.6-4.9 4.8-4.9h10.4c3.2 0 4.8 1.6 4.8 4.9h-20zm29.6 9.8v-9.9C268.9 4.9 264 0 254.3 0h-9.9c-9.7 0-14.6 4.9-14.6 14.8v10.8c0 9.9 4.8 14.8 14.3 14.8h23v-9.9h-23c-3.2 0-4.8-1.6-4.8-4.9v-.9h29.6v-.1zm-73 15.7V10.7h14.3c3.2 0 4.8 1.6 4.8 4.9v24.6h9.6V15.7c0-9.9-4.8-14.8-14.3-14.8h-23.9v39.4h9.5zm-26.7-9.9h-16.7v-4.9h16.7c1.6 0 2.4.9 2.4 2.7 0 1.5-.8 2.2-2.4 2.2zm0-14.7h-16.7v-4.9h16.7c1.6 0 2.4.9 2.4 2.7 0 1.4-.8 2.2-2.4 2.2zm8.6 4.8a10 10 0 0 0 3.3-7.2C181 5 177 .9 169.1.9h-26.2v39.4h26.2c8 0 12-4 12-12.1a11 11 0 0 0-3.3-7.7zM96.4 28c0 8.1 4 12.2 11.9 12.3H132v-9.9h-23.7c-1.6 0-2.3-.8-2.3-2.4 0-1.7.8-2.5 2.3-2.5h14.4c7.9-.1 11.9-4.2 11.9-12.5 0-8.1-4-12.1-11.9-12.1H99v9.9h23.7c1.5 0 2.3.8 2.3 2.4-.1 1.7-.8 2.5-2.3 2.5h-14.4c-7.9 0-11.9 4.1-11.9 12.3zm-33.9-.1c0-1.6.8-2.4 2.4-2.4h16.7v4.9H65c-1.7 0-2.5-.8-2.5-2.5zm28.7 12.4V15.7C91.2 5.8 86.4.9 76.9.9H54.7v9.9h22.1c3.2 0 4.8 1.6 4.8 4.8v.1H65c-8 0-12 4-12 12.1 0 8.4 4 12.5 12 12.5h26.2zM38.2.9v29.6h-4.8c-3.2 0-4.8-1.6-4.8-4.9V.9H19v24.5c0 3.3-1.6 5-4.8 5s-4.8-1.6-4.8-4.9V.9H0v24.6c0 9.9 4.8 14.8 14.3 14.8h2.2l2-.3 2.3-.9 3.1-1.7 3.1 1.7 2.3.9 2 .3h16.5V.9h-9.6z"/></svg>